<?xml version="1.0" standalone="no"?>
<!DOCTYPE svg PUBLIC "-//W3C//DTD SVG 20010904//EN"
 "http://www.w3.org/TR/2001/REC-SVG-20010904/DTD/svg10.dtd">
<svg version="1.0" xmlns="http://www.w3.org/2000/svg"
 width="700.000000pt" height="700.000000pt" viewBox="0 0 700.000000 700.000000"
 preserveAspectRatio="xMidYMid meet">
<metadata>
Created by potrace 1.14, written by Peter Selinger 2001-2017
</metadata>
<g transform="translate(0.000000,700.000000) scale(0.100000,-0.100000)"
fill="#000000" stroke="none">
<path d="M4677 6702 c-2 -4 -3 -269 -3 -589 l1 -583 -55 -1 c-30 0 -356 -1
-723 -1 l-669 -1 7 -66 c3 -36 8 -73 10 -81 2 -8 6 -42 10 -75 3 -33 8 -73 11
-90 2 -16 6 -46 8 -65 3 -19 12 -96 22 -171 l17 -137 79 -21 c235 -63 625
-240 848 -385 179 -116 381 -298 530 -476 30 -36 57 -67 60 -70 14 -13 112
-153 152 -215 138 -217 236 -487 264 -720 3 -27 8 -61 11 -75 5 -20 9 -757 13
-2495 l0 -91 278 1 c188 1 290 6 317 14 109 34 169 71 242 149 74 80 115 188
127 337 4 39 8 81 11 95 2 14 6 61 10 105 3 44 7 91 10 105 2 14 7 57 10 95 3
39 8 88 10 110 3 22 7 60 9 85 3 25 8 74 11 110 4 36 8 81 10 100 3 32 9 88
20 195 2 22 7 72 11 110 4 39 8 81 9 95 13 127 21 207 31 310 3 36 8 76 9 90
1 14 6 59 10 100 4 41 9 86 10 100 2 14 6 59 10 100 8 79 8 83 20 200 10 96
11 110 20 199 4 41 8 82 10 90 1 9 6 54 10 101 3 47 8 96 10 110 2 14 7 59 11
100 3 41 8 86 9 100 7 62 17 169 21 205 3 37 13 136 20 195 1 14 5 54 8 90 3
36 8 85 11 110 5 45 10 102 20 203 3 28 7 72 10 97 3 25 8 70 10 100 7 69 14
145 20 190 2 19 7 64 10 100 8 89 13 146 20 205 3 28 7 77 10 110 3 33 8 76
10 95 4 30 7 66 20 201 l2 27 -696 0 c-383 0 -711 1 -728 1 l-33 1 0 590 0
590 -285 0 c-156 -1 -286 -4 -288 -8z"/>
<path d="M2318 4375 c-2 -2 -48 -6 -102 -9 -55 -4 -102 -8 -105 -10 -3 -2 -28
-6 -56 -10 -317 -38 -673 -159 -943 -318 -242 -143 -468 -361 -597 -574 -87
-145 -161 -335 -191 -489 -2 -11 -6 -31 -8 -45 -10 -51 -15 -97 -21 -192 l-6
-98 208 0 c199 -1 3992 0 4119 0 l62 0 -4 53 c-7 117 -16 212 -19 217 -2 3 -6
23 -9 45 -17 106 -75 283 -128 388 -207 414 -608 735 -1128 904 -88 28 -251
72 -299 79 -18 3 -43 8 -55 10 -60 13 -175 30 -276 40 -62 6 -437 13 -442 9z"/>
<path d="M323 2042 c-16 -2 -23 -11 -24 -25 -4 -100 -3 -508 1 -531 l5 -28
2178 0 c1198 0 2181 2 2184 6 8 7 8 565 0 573 -6 6 -4301 11 -4344 5z"/>
<path d="M298 869 c-6 -4 -8 -72 -6 -180 3 -151 6 -180 24 -219 30 -64 84
-116 151 -148 l58 -26 1960 0 1960 0 55 26 c70 33 117 79 148 148 24 51 25 65
27 227 0 95 -1 174 -4 174 -23 5 -4365 3 -4373 -2z"/>
</g>
</svg>
